<svg xmlns="http://www.w3.org/2000/svg" viewBox="0 0 448 512"><!--! Font Awesome Pro 6.4.0 by @fontawesome - https://fontawesome.com License - https://fontawesome.com/license (Commercial License) Copyright 2023 Fonticons, Inc. -->
  <defs>
    <linearGradient id="gradient" gradientTransform="rotate(90)">
      <stop offset="25%" stop-color="#9ddffb" stop-opacity="0.25">
        <animate attributeName="stop-opacity" values="0.25; 0.5; 0.75; 0.5; 0.25" dur="2s" repeatCount="indefinite"></animate>
      </stop>
      <stop offset="100%" stop-color="#9ddffb" stop-opacity="0.75">
        <animate attributeName="stop-opacity" values="0.25; 0.5; 0.75; 0.5; 0.25" begin="1s;op.end+1s" dur="2s" repeatCount="indefinite"></animate>
      </stop>
      <!-- <stop offset="100%" stop-color="#9ddffb" stop-opacity="1">
        <animate attributeName="stop-opacity" values="1; 1; 1; 1" dur="2s" repeatCount="indefinite"></animate>
      </stop> -->
    </linearGradient>
  </defs>
  <path  fill="url(#gradient)" d="M246.6 41.4c-12.5-12.5-32.8-12.5-45.3 0l-160 160c-12.5 12.5-12.5 32.8 0 45.3s32.8 12.5 45.3 0L224 109.3 361.4 246.6c12.5 12.5 32.8 12.5 45.3 0s12.5-32.8 0-45.3l-160-160zm160 352l-160-160c-12.5-12.5-32.8-12.5-45.3 0l-160 160c-12.5 12.5-12.5 32.8 0 45.3s32.8 12.5 45.3 0L224 301.3 361.4 438.6c12.5 12.5 32.8 12.5 45.3 0s12.5-32.8 0-45.3z"/>
</svg>
