<?xml version="1.0" encoding="UTF-8" standalone="yes"?>
<!DOCTYPE svg PUBLIC "-//W3C//DTD SVG 1.1//EN" "http://www.w3.org/Graphics/SVG/1.1/DTD/svg11.dtd">

<svg width="500" height="500" viewBox="0 0 500 500" xmlns="http://www.w3.org/2000/svg" xmlns:xlink="http://www.w3.org/1999/xlink" version="1.1" baseProfile="full">
    <g transform="scale(1.000000,-1.000000) translate(0,-500)">
        <path d="M 188.971149 1.000000 C 140.334820 1.000000 94.566081 3.316612 60.079867 7.524080 C 5.558090 14.185905 1.000000 22.550753 1.000000 29.988956 C 1.000000 37.427160 5.558091 45.792006 60.092387 52.441309 C 94.628696 56.648780 140.334824 58.952865 188.971149 58.952865 C 237.607474 58.952865 283.388742 56.636253 317.862431 52.428784 C 372.396729 45.779482 376.954818 37.402112 376.954818 29.976431 C 376.954818 22.550750 372.396728 14.173381 317.874951 7.511555 C 283.388732 3.316620 237.620008 1.000000 188.971149 1.000000 Z M 17.629535 29.988948 C 33.708074 23.014067 95.480217 14.761920 188.971168 14.761920 C 282.462119 14.761920 344.246782 23.014068 360.325317 29.988948 C 344.246801 36.951303 282.462100 45.178415 188.971149 45.178415 C 95.480198 45.178415 33.708070 36.951303 17.629535 29.988948 Z" transform="scale(1.000000,1.000000) translate(61.454600,441.047135)" fill="#feffff" opacity="1.000000"></path>
        <path d="M 290.053603 428.865717 L 288.613547 428.803106 C 287.499069 428.803106 286.422157 428.640317 285.270113 428.640317 L 284.656523 428.640317 L 283.742401 428.640317 C 282.940978 428.640317 282.189645 428.727972 281.388222 428.753017 C 279.797899 428.690406 278.232621 428.577706 276.617254 428.640317 L 271.520707 428.640317 C 270.606585 428.640317 269.730029 428.778061 268.815906 428.815628 C 267.350806 428.740495 265.898227 428.640317 264.383038 428.640317 C 263.343693 428.640317 262.366959 428.753017 261.352659 428.778061 C 259.324058 428.665361 257.295457 428.552661 255.216767 428.640317 L 246.864455 428.640317 C 246.343115 428.548371 245.297518 428.381867 244.773405 428.307332 C 244.249293 428.232798 243.198730 428.101206 242.672427 428.044166 C 242.146123 427.987126 241.091761 427.890591 240.563850 427.851110 C 240.035938 427.811628 238.978947 427.750257 238.450013 427.728377 C 237.921080 427.706497 236.862631 427.680359 236.333262 427.676105 C 235.442459 427.434112 233.647083 427.004005 232.743326 426.816085 C 231.839568 426.628166 230.021553 426.306937 229.108121 426.173773 C 228.194689 426.040608 226.360631 425.829423 225.440838 425.751497 C 224.521045 425.673572 222.677600 425.573196 221.754784 425.550792 C 220.831968 425.528387 218.985824 425.539186 218.063333 425.572384 L 217.549922 425.572384 C 216.723455 425.572384 215.922032 425.710129 215.108087 425.735173 C 214.772561 425.710034 214.101035 425.666546 213.765069 425.648199 C 213.429102 425.629853 212.756833 425.599960 212.420565 425.588415 C 212.084297 425.576869 211.411560 425.560583 211.075127 425.555843 C 210.738694 425.551104 210.065766 425.548431 209.729306 425.550499 C 209.392845 425.552567 208.720001 425.563510 208.383652 425.572384 L 207.870240 425.572384 C 206.745408 425.576527 204.496862 425.647949 203.374034 425.715199 C 202.251206 425.782448 200.010210 425.979921 198.892925 426.110066 C 197.775639 426.240210 195.549253 426.563112 194.441030 426.755741 C 193.332807 426.948370 191.128046 427.395683 190.032376 427.650191 C 188.936707 427.904698 186.760518 428.475013 185.680855 428.790596 C 184.591421 428.727985 183.527032 428.640330 182.400032 428.640330 C 181.727999 428.644194 180.384192 428.671703 179.712564 428.695347 C 179.040936 428.718990 177.698521 428.786042 177.027880 428.829444 C 176.357239 428.872847 175.017379 428.979384 174.348306 429.042507 C 173.679233 429.105630 172.343090 429.251559 171.676165 429.334349 C 171.009240 429.417139 169.677971 429.602334 169.013772 429.704719 C 166.910038 429.704719 164.843870 429.854986 162.752658 430.017775 C 162.307230 429.965539 161.414886 429.874656 160.968073 429.836020 C 160.521260 429.797383 159.626561 429.733737 159.178778 429.708735 C 158.730995 429.683733 157.834771 429.647382 157.386435 429.636038 C 156.938098 429.624694 156.041183 429.615673 155.592709 429.617998 C 155.144234 429.620322 154.247461 429.638639 153.799266 429.654630 L 153.285855 429.654630 C 152.309121 429.654630 151.369954 429.804897 150.405742 429.842464 C 149.864355 429.775253 148.780064 429.653652 148.237238 429.599271 C 147.694411 429.544889 146.607547 429.448979 146.063586 429.407457 C 145.519624 429.365935 144.430795 429.295769 143.886003 429.267129 C 143.341212 429.238490 142.251027 429.194107 141.705710 429.178367 C 141.160394 429.162626 140.069464 429.144052 139.523928 429.141219 C 138.271705 429.141219 137.019482 429.278963 135.767260 429.329052 C 135.392616 429.296933 134.642605 429.241771 134.267293 429.218731 C 133.891981 429.195691 133.140855 429.158702 132.765095 429.144755 C 132.389336 429.130807 131.637534 429.112012 131.261547 429.107166 C 130.885560 429.102319 130.133523 429.101730 129.757529 429.105987 C 129.381535 429.110244 128.629704 429.127861 128.253923 429.141219 L 123.157377 429.141219 C 122.498835 429.151196 121.182239 429.192264 120.524356 429.223349 C 119.866472 429.254435 118.551870 429.337691 117.895321 429.389851 C 117.238772 429.442012 115.927515 429.567371 115.272976 429.640554 C 114.618436 429.713736 113.311872 429.881069 112.660016 429.975198 C 112.008159 430.069328 110.707631 430.278463 110.059128 430.393442 C 108.255927 430.518664 106.490293 430.681453 104.737181 430.894331 C 103.780454 430.913969 101.868342 430.995706 100.913429 431.057785 C 99.958516 431.119864 98.051915 431.286382 97.100698 431.390780 C 96.149481 431.495177 94.252150 431.746147 93.306503 431.892657 C 92.360856 432.039168 90.476532 432.374095 89.538320 432.562429 C 88.600107 432.750764 86.732504 433.168989 85.803574 433.398776 C 84.551351 433.398776 83.223995 433.235987 81.884117 433.235987 C 80.815859 433.234949 78.679943 433.285642 77.612937 433.337357 C 76.545931 433.389073 74.415124 433.545179 73.351973 433.649523 C 72.288823 433.753866 70.168324 434.015005 69.111624 434.171721 C 68.054923 434.328437 65.949907 434.693971 64.902234 434.902678 C 63.854561 435.111384 61.770165 435.580422 60.734076 435.840610 C 59.655864 435.857797 57.501011 435.947009 56.425068 436.019006 C 55.349125 436.091004 53.201597 436.289687 52.130708 436.416309 C 51.059818 436.542930 48.925174 436.850570 47.862109 437.031489 C 46.799045 437.212408 44.682808 437.628208 43.630320 437.862955 C 42.577832 438.097703 40.485479 438.620587 39.446291 438.908556 C 37.562814 439.085741 33.818934 439.632433 31.963436 440.001223 C 30.107938 440.370013 26.439554 441.296550 24.631474 441.853081 C 22.823395 442.409613 19.268940 443.706286 17.527222 444.444729 C 15.785504 445.183171 12.382218 446.836396 10.725109 447.749013 C 9.068000 448.661630 5.851538 450.654087 4.296400 451.731316 C 4.059093 451.555308 3.613586 451.167109 3.406763 450.956117 C 3.199940 450.745125 2.820707 450.291962 2.649469 450.051190 C 2.478231 449.810419 2.174627 449.303468 2.043198 449.038856 C 1.911769 448.774243 1.691281 448.226010 1.602903 447.944083 C 1.514526 447.662156 1.382593 447.086163 1.339446 446.793875 C 1.296299 446.501588 1.256175 445.912042 1.259323 445.616604 C 1.262471 445.321166 1.315147 444.732609 1.364512 444.441308 C 1.413878 444.150006 1.558053 443.576955 1.652418 443.296975 C 1.746783 443.016995 1.978903 442.473585 2.115940 442.211833 C 2.252977 441.950080 2.567315 441.449714 2.743644 441.212646 L 149.566736 229.536918 L 2.155099 11.261983 C 1.870065 10.848085 1.432971 9.943003 1.286028 9.462416 C 1.139085 8.981829 0.995288 7.987069 1.000118 7.484542 C 1.004948 6.982016 1.167838 5.990204 1.323991 5.512530 C 1.480144 5.034856 1.934554 4.138342 2.227490 3.729998 C 2.520426 3.321655 3.224044 2.603917 3.626487 2.302926 C 4.028930 2.001935 4.916239 1.529804 5.390717 1.364192 C 5.865194 1.198580 6.853574 1.016018 7.355906 1.001205 C 7.858237 0.986393 8.855657 1.110398 9.339069 1.247764 C 9.822480 1.385130 10.736068 1.804157 11.155547 2.080911 C 11.575027 2.357666 12.319714 3.032696 12.636202 3.423069 L 305.819082 431.144771 C 305.043767 430.957307 303.486384 430.611492 302.704591 430.453203 C 301.922797 430.294914 300.353553 430.007682 299.566379 429.878790 C 298.779204 429.749898 297.200302 429.521652 296.408852 429.422339 C 295.617401 429.323025 294.031057 429.154085 293.236442 429.084489 C 292.441827 429.014893 290.850268 428.905498 290.053603 428.865717 Z" transform="scale(1.000000,1.000000) translate(60.737787,23.775212)" fill="#feffff" opacity="1.000000"></path>
        <path d="M 188.971149 1.000000 C 140.334820 1.000000 94.566081 3.316612 60.079867 7.524080 C 5.558090 14.185905 1.000000 22.550753 1.000000 29.988956 C 1.000000 37.427160 5.558091 45.792006 60.092387 52.441309 C 94.628696 56.648780 140.334824 58.952865 188.971149 58.952865 C 237.607474 58.952865 283.388742 56.636253 317.862431 52.428784 C 372.396729 45.779482 376.954818 37.402112 376.954818 29.976431 C 376.954818 22.550750 372.396728 14.173381 317.874951 7.511555 C 283.388732 3.316620 237.620008 1.000000 188.971149 1.000000 Z M 17.629535 29.988948 C 33.708074 23.014067 95.480217 14.761920 188.971168 14.761920 C 282.462119 14.761920 344.246782 23.014068 360.325317 29.988948 C 344.246801 36.951303 282.462100 45.178415 188.971149 45.178415 C 95.480198 45.178415 33.708070 36.951303 17.629535 29.988948 Z" transform="scale(1.000000,1.000000) translate(61.454600,441.047135)" fill="#feffff" opacity="1.000000"></path>
        <path d="M 188.983664 58.965389 C 237.619994 58.965389 283.388732 56.648777 317.874947 52.428787 C 372.396724 45.779484 376.954814 37.402114 376.954814 29.976434 C 376.954814 22.550753 372.396723 14.173383 317.862426 7.511558 C 283.388735 3.316612 237.619994 1.000000 188.983669 1.000000 C 140.347344 1.000000 94.566076 3.316612 60.092387 7.511558 C 5.558090 14.173383 1.000000 22.600841 1.000000 29.976434 C 1.000000 37.352026 5.558091 45.779484 60.079867 52.428787 C 94.566081 56.648808 140.334805 58.965389 188.983664 58.965389 Z M 360.325298 29.976434 C 344.246758 36.951315 282.474615 45.203462 188.983664 45.203462 C 95.492714 45.203462 33.708051 36.951314 17.629516 29.976434 C 33.708051 22.989055 95.492714 14.749409 188.983664 14.749409 C 282.474615 14.749409 344.246782 22.989055 360.325279 29.976480 Z" transform="scale(1.000000,1.000000) translate(60.590582,1.166321)" fill="#feffff" opacity="1.000000"></path>
        <path d="M 16.765479 23.890664 C 17.241324 23.890664 17.729691 23.890664 18.205535 23.965798 C 19.320013 23.965798 20.396925 24.128587 21.548970 24.128587 C 21.761848 24.128587 21.949681 24.128587 22.162559 24.128587 C 22.375437 24.128587 22.763626 24.128587 23.076682 24.128587 C 23.878104 24.128587 24.629438 24.028409 25.430860 24.003364 C 27.021183 24.065975 28.586461 24.191198 30.201829 24.128587 L 35.298375 24.128587 C 36.212498 24.128587 37.089054 23.978320 38.003176 23.940753 C 39.468277 24.015886 40.920855 24.128587 42.436045 24.128587 C 43.475389 24.128587 44.452123 24.003364 45.466424 23.978320 C 47.495024 24.091020 49.523625 24.203720 51.602315 24.128587 L 60.017251 24.128587 C 60.538644 24.219903 61.584326 24.385149 62.108470 24.459054 C 62.632614 24.532960 63.683218 24.663295 64.209532 24.719707 C 64.735846 24.776119 65.790208 24.871400 66.318109 24.910256 C 66.846009 24.949112 67.902959 25.009233 68.431860 25.030490 C 68.960762 25.051747 70.019127 25.076642 70.548444 25.080276 C 71.436241 25.321332 73.225505 25.749932 74.126166 25.937283 C 75.026828 26.124633 76.838586 26.445098 77.748866 26.578067 C 78.659147 26.711037 80.486869 26.922211 81.403488 27.000321 C 82.320107 27.078430 84.157208 27.179553 85.076862 27.202521 C 85.996516 27.225489 87.836374 27.216196 88.755749 27.183940 L 89.269161 27.183940 C 90.095628 27.183940 90.897050 27.046195 91.710995 27.021151 C 92.046466 27.047226 92.717927 27.092212 93.053879 27.111121 C 93.389830 27.130030 94.062099 27.160673 94.398377 27.172407 C 94.734656 27.184140 95.407425 27.200427 95.743878 27.204979 C 96.080330 27.209532 96.753294 27.211454 97.089766 27.208824 C 97.426239 27.206194 98.099091 27.193751 98.435431 27.183940 L 98.948842 27.183940 C 100.073674 27.179796 102.322220 27.108375 103.445048 27.041125 C 104.567876 26.973875 106.808872 26.776403 107.926158 26.646258 C 109.043443 26.516114 111.269829 26.193212 112.378053 26.000583 C 113.486276 25.807953 115.691037 25.360640 116.786706 25.106133 C 117.882375 24.851626 120.058564 24.281311 121.138227 23.965727 C 122.227661 24.028338 123.292050 24.128516 124.419051 24.128516 C 125.091160 24.124987 126.435121 24.097760 127.106821 24.074065 C 127.778522 24.050371 129.121061 23.982830 129.791748 23.938991 C 130.462435 23.895152 131.802343 23.787358 132.471413 23.723415 C 133.140482 23.659471 134.476552 23.511521 135.143402 23.427530 C 135.810252 23.343540 137.141281 23.155567 137.805311 23.051605 C 139.909045 23.051605 141.975212 22.901338 144.066424 22.751071 C 144.511900 22.802680 145.404321 22.892309 145.851162 22.930318 C 146.298004 22.968328 147.192742 23.030719 147.640534 23.055094 C 148.088326 23.079469 148.984550 23.114566 149.432877 23.125284 C 149.881204 23.136002 150.778081 23.143771 151.226527 23.140822 C 151.674972 23.137873 152.571669 23.118307 153.019817 23.101694 L 153.533228 23.101694 C 154.509962 23.101694 155.449129 22.951427 156.413340 22.913860 C 156.954728 22.981071 158.039018 23.102671 158.581845 23.157053 C 159.124671 23.211435 160.211535 23.307345 160.755497 23.348867 C 161.299458 23.390389 162.388287 23.460555 162.933079 23.489194 C 163.477871 23.517834 164.568055 23.562217 165.113372 23.577957 C 165.658689 23.593697 166.749618 23.612272 167.295155 23.615105 C 168.547377 23.615105 169.799600 23.477360 171.051823 23.439794 C 171.426564 23.470337 172.176705 23.522727 172.552054 23.544570 C 172.927403 23.566412 173.678557 23.601387 174.054312 23.614517 C 174.430067 23.627647 175.181830 23.645188 175.557788 23.649598 C 175.933746 23.654008 176.685714 23.654106 177.061674 23.649794 C 177.437633 23.645482 178.189401 23.628137 178.565159 23.615105 L 183.661705 23.615105 C 184.320248 23.605127 185.636843 23.564059 186.294727 23.532974 C 186.952611 23.501889 188.267212 23.418633 188.923761 23.366472 C 189.580311 23.314312 190.891567 23.188953 191.546107 23.115770 C 192.200646 23.042588 193.507210 22.875255 194.159067 22.781125 C 194.810923 22.686996 196.111451 22.477861 196.759955 22.362882 C 198.563156 22.237660 200.328789 22.074871 202.081901 21.861993 C 203.038629 21.842355 204.950740 21.760618 205.905654 21.698538 C 206.860567 21.636459 208.767167 21.469942 209.718384 21.365544 C 210.669601 21.261147 212.566933 21.010177 213.512580 20.863666 C 214.458226 20.717156 216.342550 20.382229 217.280763 20.193894 C 218.218976 20.005560 220.086578 19.587335 221.015508 19.357548 C 222.267731 19.432681 223.595087 19.532859 224.934965 19.532859 C 225.999739 19.532073 228.128592 19.477703 229.192017 19.424136 C 230.255443 19.370568 232.378983 19.210733 233.438446 19.104515 C 234.497908 18.998297 236.610915 18.733390 237.663809 18.574782 C 238.716703 18.416175 240.813980 18.046847 241.857717 17.836241 C 242.901455 17.625634 244.977844 17.152794 246.009858 16.890706 C 247.088071 16.873519 249.242924 16.784307 250.318867 16.712310 C 251.394810 16.640312 253.542338 16.441629 254.613227 16.315007 C 255.684117 16.188385 257.818761 15.880745 258.881826 15.699827 C 259.944890 15.518908 262.061127 15.103108 263.113615 14.868361 C 264.166103 14.633613 266.258456 14.110728 267.297644 13.822760 C 269.181121 13.645575 272.925001 13.098883 274.780499 12.730093 C 276.635997 12.361303 280.304381 11.434766 282.112460 10.878235 C 283.920540 10.321703 287.474995 9.025030 289.216713 8.286587 C 290.958430 7.548145 294.361717 5.894919 296.018826 4.982303 C 297.675934 4.069686 300.892396 2.077229 302.447535 1.000000 C 302.684842 1.176008 303.130348 1.564206 303.337172 1.775198 C 303.543995 1.986190 303.923228 2.439354 304.094466 2.680125 C 304.265704 2.920897 304.569308 3.427848 304.700737 3.692460 C 304.832166 3.957073 305.052653 4.505306 305.141031 4.787233 C 305.229409 5.069160 305.361342 5.645153 305.404489 5.937440 C 305.447636 6.229728 305.487759 6.819274 305.484611 7.114712 C 305.481464 7.410150 305.428788 7.998707 305.379422 8.290008 C 305.330057 8.581310 305.185881 9.154361 305.091516 9.434341 C 304.997151 9.714321 304.765032 10.257731 304.627995 10.519483 C 304.490958 10.781236 304.176620 11.281602 304.000291 11.518670 L 161.760317 229.768563 L 304.663974 441.394198 C 304.971949 441.806639 305.451277 442.717720 305.616727 443.205143 C 305.782178 443.692567 305.956506 444.707177 305.963237 445.221871 C 305.969967 445.736566 305.822231 446.755387 305.669583 447.246971 C 305.516935 447.738555 305.061597 448.661858 304.764512 449.082211 C 304.467428 449.502564 303.749059 450.239971 303.336618 450.547946 C 302.924178 450.855921 302.013097 451.335249 301.525673 451.500699 C 301.038250 451.666150 300.023640 451.840478 299.508945 451.847209 C 298.994251 451.853939 297.975429 451.706203 297.483846 451.553555 C 296.992262 451.400907 296.068958 450.945569 295.648605 450.648484 C 295.228252 450.351400 294.490846 449.633031 294.182870 449.220590 L 1.000000 21.674206 C 1.775797 21.857624 3.333912 22.195698 4.115962 22.350296 C 4.898013 22.504895 6.467565 22.785108 7.254799 22.910675 C 8.042032 23.036242 9.620875 23.258210 10.412214 23.354574 C 11.203554 23.450938 12.789526 23.614358 13.583888 23.681386 C 14.378250 23.748415 15.969182 23.853063 16.765479 23.890664 Z" transform="scale(1.000000,1.000000) translate(132.443126,23.543566)" fill="#feffff" opacity="1.000000"></path>
        <path d="M 188.983664 58.965390 C 237.619994 58.965390 283.388732 56.648778 317.874947 52.441309 C 372.396724 45.779484 376.954814 37.352026 376.954814 29.976434 C 376.954814 22.600841 372.396723 14.185906 317.862426 7.524080 C 283.388735 3.316612 237.619994 1.000000 188.983669 1.000000 C 140.347344 1.000000 94.566076 3.316612 60.092387 7.524080 C 5.558090 14.185905 1.000000 22.550753 1.000000 29.976434 C 1.000000 37.402114 5.558091 45.779484 60.079867 52.441309 C 94.566081 56.711404 140.334805 58.965390 188.983664 58.965390 Z M 360.325279 30.039076 C 344.246739 37.013957 282.474596 45.278626 188.983645 45.278626 C 95.492695 45.278626 33.708032 37.013957 17.629497 30.039076 C 33.708036 23.076718 95.480179 14.824571 188.983645 14.824571 C 282.487112 14.824571 344.246782 23.076721 360.325279 30.039076 Z" transform="scale(1.000000,1.000000) translate(60.590582,-1.000000)" fill="#feffff" opacity="1.000000"></path>
    </g>
</svg>