<svg id="图层_1" data-name="图层 1" xmlns="http://www.w3.org/2000/svg" viewBox="0 0 800 800"><defs><style>.cls-1{fill:#ffffff;}</style></defs><title>Light Cone Lab</title><path class="cls-1" d="M400.34,245.28c-38.84,0-75.39-1.85-102.93-5.21-43.54-5.32-47.18-12-47.18-17.94s3.64-12.62,47.19-17.93C325,200.84,361.5,199,400.34,199s75.4,1.85,102.93,5.21c43.55,5.31,47.19,12,47.19,17.93s-3.64,12.62-47.18,17.94C475.74,243.43,439.19,245.28,400.34,245.28ZM263.51,222.13c12.84,5.57,62.17,12.16,136.83,12.16s124-6.59,136.84-12.16C524.34,216.57,475,210,400.34,210S276.35,216.57,263.51,222.13Z"/><path class="cls-1" d="M480.49,236.82l-1.15.05c-.89,0-1.75.13-2.67.13l-.49,0-.73,0c-.64,0-1.24-.07-1.88-.09-1.27.05-2.52.14-3.81.09h-4.07c-.73,0-1.43-.11-2.16-.14-1.17.06-2.33.14-3.54.14-.83,0-1.61-.09-2.42-.11-1.62.09-3.24.18-4.9.11H446a50.77,50.77,0,0,1-8.41.77A48.94,48.94,0,0,1,423,239.45h-.41c-.66,0-1.3-.11-1.95-.13a53.12,53.12,0,0,1-5.37.13h-.41a64,64,0,0,1-17.72-2.57c-.87.05-1.72.12-2.62.12a72.92,72.92,0,0,1-10.69-.85c-1.68,0-3.33-.12-5-.25a47,47,0,0,1-7.15.29h-.41c-.78,0-1.53-.12-2.3-.15a73.64,73.64,0,0,1-8.69.56c-1,0-2-.11-3-.15a49.61,49.61,0,0,1-6,.15h-4.07a65.61,65.61,0,0,1-10.46-1c-1.44-.1-2.85-.23-4.25-.4a68.85,68.85,0,0,1-15.12-2c-1,0-2.06.13-3.13.13a69.07,69.07,0,0,1-16.89-2.08,67.7,67.7,0,0,1-17-2.45,59,59,0,0,1-28.07-10.24,6,6,0,0,0-1.24,8.4L368.3,396,250.58,570.31a5.23,5.23,0,0,0,8.37,6.26L493.08,235A68,68,0,0,1,480.49,236.82Z"/><path class="cls-1" d="M400.34,245.28c-38.84,0-75.39-1.85-102.93-5.21-43.54-5.32-47.18-12-47.18-17.94s3.64-12.62,47.19-17.93C325,200.84,361.5,199,400.34,199s75.4,1.85,102.93,5.21c43.55,5.31,47.19,12,47.19,17.93s-3.64,12.62-47.18,17.94C475.74,243.43,439.19,245.28,400.34,245.28ZM263.51,222.13c12.84,5.57,62.17,12.16,136.83,12.16s124-6.59,136.84-12.16C524.34,216.57,475,210,400.34,210S276.35,216.57,263.51,222.13Z"/><path class="cls-1" d="M399.66,550.27c38.84,0,75.39,1.85,102.93,5.22,43.54,5.31,47.18,12,47.18,17.93s-3.64,12.62-47.19,17.94c-27.53,3.35-64.08,5.2-102.92,5.2s-75.4-1.85-102.93-5.2c-43.55-5.32-47.19-12.05-47.19-17.94s3.64-12.62,47.18-17.93C324.26,552.12,360.81,550.27,399.66,550.27Zm136.83,23.15c-12.84-5.57-62.17-12.16-136.83-12.16s-124,6.59-136.84,12.16C275.66,579,325,585.58,399.66,585.58S523.65,579,536.49,573.42Z"/><path class="cls-1" d="M319.51,560.41c.38,0,.77,0,1.15-.06.89,0,1.75-.13,2.67-.13.17,0,.32,0,.49,0s.48,0,.73,0c.64,0,1.24.08,1.88.1,1.27-.05,2.52-.15,3.81-.1h4.07c.73,0,1.43.12,2.16.15,1.17-.06,2.33-.15,3.54-.15.83,0,1.61.1,2.42.12,1.62-.09,3.24-.18,4.9-.12h6.72a50.77,50.77,0,0,1,8.41-.76A48.94,48.94,0,0,1,377,557.78h.41c.66,0,1.3.11,1.95.13a50.35,50.35,0,0,1,5.37-.13h.41a64,64,0,0,1,17.72,2.57c.87-.05,1.72-.13,2.62-.13a71.54,71.54,0,0,1,10.69.86c1.68,0,3.33.12,5,.24a47,47,0,0,1,7.15-.28h.41c.78,0,1.53.12,2.3.15a73.64,73.64,0,0,1,8.69-.56c1,0,2,.11,3,.14a51.77,51.77,0,0,1,6-.14h4.07a65.61,65.61,0,0,1,10.46,1c1.44.1,2.85.23,4.25.4a68.85,68.85,0,0,1,15.12,2c1-.06,2.06-.14,3.13-.14A68.58,68.58,0,0,1,502.58,566a67.7,67.7,0,0,1,17,2.45,59,59,0,0,1,28.07,10.24,6,6,0,0,0,1.24-8.4L435.3,396l114.12-169a5.22,5.22,0,0,0-8.37-6.25L306.92,562.18A68.83,68.83,0,0,1,319.51,560.41Z"/><path class="cls-1" d="M399.66,552c38.84,0,75.39,1.85,102.93,5.21,43.54,5.32,47.18,12.05,47.18,17.94s-3.64,12.61-47.19,17.93c-27.53,3.36-64.08,5.21-102.92,5.21s-75.4-1.85-102.93-5.21c-43.55-5.32-47.19-12-47.19-17.93s3.64-12.62,47.18-17.94C324.26,553.8,360.81,552,399.66,552ZM536.49,575.1c-12.84-5.57-62.17-12.17-136.83-12.17s-124,6.6-136.84,12.17c12.84,5.56,62.17,12.15,136.84,12.15S523.65,580.66,536.49,575.1Z"/></svg>
